<svg xmlns="http://www.w3.org/2000/svg" viewBox="0 0 64 64">
  <defs>
    <linearGradient id="g" x1="0" y1="0" x2="1" y2="1">
      <stop offset="0%" stop-color="#6366F1"/>
      <stop offset="50%" stop-color="#8B5CF6"/>
      <stop offset="100%" stop-color="#60A5FA"/>
    </linearGradient>
  </defs>
  <rect x="4" y="4" width="56" height="56" rx="14" fill="url(#g)"/>
  <path d="M23 18h11.5c7.5 0 12.5 3.6 12.5 9.5c0 4.2-2.4 7.2-6.4 8.6c3.9 1.1 6.4 4 6.4 8.4c0 6.2-4.9 9.5-12.8 9.5H23V18zm9.9 14.8c4.6 0 7.3-1.7 7.3-5.1c0-3.2-2.5-4.9-7.2-4.9H30v10h2.9zm1.1 18.2c5.3 0 8-1.9 8-5.7c0-3.5-2.7-5.4-8.2-5.4H30v11.1h4z" fill="#fff"/>
</svg>
